<?xml version="1.0" standalone="no"?>
<!DOCTYPE svg PUBLIC "-//W3C//DTD SVG 20010904//EN"
 "http://www.w3.org/TR/2001/REC-SVG-20010904/DTD/svg10.dtd">
<svg version="1.0" xmlns="http://www.w3.org/2000/svg"
 width="1525.000000pt" height="1525.000000pt" viewBox="0 0 1525.000000 1525.000000"
 preserveAspectRatio="xMidYMid meet">
<metadata>
Created by potrace 1.14, written by Peter Selinger 2001-2017
</metadata>
<g transform="translate(0.000000,1525.000000) scale(0.100000,-0.100000)"
fill="#000000" stroke="none">
<path d="M7310 15244 c-681 -61 -1273 -249 -1832 -583 -939 -561 -1625 -1476
-1898 -2535 -45 -175 -72 -311 -103 -521 l-21 -150 -4 -5415 c-3 -4972 -2
-5421 13 -5485 49 -209 196 -392 390 -485 108 -51 190 -70 312 -70 330 0 599
203 701 532 15 49 17 444 22 5428 l5 5375 23 135 c80 491 251 893 539 1273
107 141 372 403 513 509 396 295 815 468 1300 535 172 23 528 23 700 0 487
-68 923 -248 1313 -544 131 -100 400 -369 500 -500 288 -380 459 -784 539
-1273 l22 -135 6 -2140 c6 -2402 -1 -2177 81 -2335 77 -149 190 -259 336 -326
99 -47 189 -65 308 -65 337 1 621 227 699 556 16 64 17 243 14 2250 -4 2176
-4 2180 -26 2330 -88 611 -265 1121 -559 1615 -602 1008 -1603 1717 -2753
1950 -285 58 -426 71 -775 75 -176 1 -340 1 -365 -1z"/>
<path d="M6982 11773 c-62 -53 -1131 -1228 -1167 -1283 -50 -77 -88 -170 -107
-260 -11 -54 -13 -815 -13 -4345 0 -4114 1 -4283 18 -4358 61 -260 268 -472
524 -538 87 -22 247 -27 323 -10 246 56 435 214 527 441 56 141 53 -232 53
5253 l0 5059 -29 29 c-35 35 -96 40 -129 12z"/>
<path d="M9398 11763 c-27 -18 -1102 -1287 -1163 -1372 -43 -61 -77 -130 -106
-216 l-24 -70 -3 -3478 c-2 -3776 -6 -3535 51 -3677 79 -195 241 -348 442
-416 107 -36 280 -45 388 -19 259 61 465 261 540 522 l22 78 3 4260 c2 2343 0
4279 -3 4303 -12 81 -87 125 -147 85z"/>
</g>
</svg>
