<?xml version="1.0" standalone="no"?>
<!DOCTYPE svg PUBLIC "-//W3C//DTD SVG 20010904//EN"
 "http://www.w3.org/TR/2001/REC-SVG-20010904/DTD/svg10.dtd">
<svg version="1.0" xmlns="http://www.w3.org/2000/svg"
 width="512.000000pt" height="512.000000pt" viewBox="0 0 512.000000 512.000000"
 preserveAspectRatio="xMidYMid meet">
<metadata>
Created by potrace 1.14, written by Peter Selinger 2001-2017
</metadata>
<g transform="translate(0.000000,512.000000) scale(0.100000,-0.100000)"
fill="#000000" stroke="none">
<path d="M390 5104 c-30 -8 -80 -26 -110 -41 -72 -35 -188 -151 -223 -223 -61
-126 -57 23 -57 -2280 0 -2303 -4 -2154 57 -2280 35 -72 151 -188 223 -223
126 -61 -23 -57 2280 -57 2303 0 2154 -4 2280 57 72 35 188 151 223 223 61
126 57 -23 57 2280 0 2303 4 2154 -57 2280 -35 72 -151 188 -223 223 -127 61
23 57 -2285 56 -1816 0 -2118 -2 -2165 -15z m1730 -938 c0 -4 -776 -3123 -791
-3178 l-10 -38 -280 0 c-262 0 -280 1 -275 18 3 9 184 734 402 1610 l396 1592
279 0 c153 0 279 -2 279 -4z m1120 -6 c0 -8 -756 -3040 -791 -3172 l-10 -38
-280 0 c-262 0 -280 1 -275 18 3 9 183 730 401 1601 218 871 398 1588 401
1593 8 12 554 10 554 -2z m1120 -7 c0 -10 -180 -733 -398 -1608 l-398 -1590
-281 -3 -281 -2 399 1597 c220 879 402 1604 404 1611 3 9 68 12 280 12 255 0
275 -1 275 -17z"/>
</g>
</svg>
