<?xml version="1.0" encoding="utf-8"?>
<!-- Generator: Adobe Illustrator 15.0.2, SVG Export Plug-In . SVG Version: 6.00 Build 0)  -->
<!DOCTYPE svg PUBLIC "-//W3C//DTD SVG 1.1//EN" "http://www.w3.org/Graphics/SVG/1.1/DTD/svg11.dtd">
<svg version="1.1" id="Layer_1" xmlns="http://www.w3.org/2000/svg" xmlns:xlink="http://www.w3.org/1999/xlink" x="0px" y="0px"
	 width="130px" height="110px" viewBox="0 0 130 110" enable-background="new 0 0 130 110" xml:space="preserve">
<g>
	<path d="M79.758,110L67.617,94.949C88.414,77.646,99.09,63.687,99.646,53.061c-16.048-3.688-24.074-12.566-24.074-26.632
		c0-7.65,2.679-13.967,8.03-18.95C88.953,2.49,95.243,0,102.472,0c7.926,0,14.493,2.997,19.707,8.995
		C127.393,14.991,130,22.624,130,31.896C130,59.021,113.253,85.055,79.758,110z M12.352,110L0,94.949
		c20.934-17.302,31.682-31.263,32.238-41.889C16.191,49.372,8.164,40.494,8.164,26.429c0-7.65,2.653-13.967,7.955-18.95
		C21.425,2.49,27.705,0,34.959,0c8.375,0,15.072,3.065,20.098,9.199c5.023,6.136,7.536,13.699,7.536,22.697
		C62.593,58.064,45.846,84.102,12.352,110z"/>
</g>
</svg>
