<?xml version="1.0" encoding="utf-8"?>
<!-- Generator: Adobe Illustrator 15.0.2, SVG Export Plug-In . SVG Version: 6.00 Build 0)  -->
<!DOCTYPE svg PUBLIC "-//W3C//DTD SVG 1.1//EN" "http://www.w3.org/Graphics/SVG/1.1/DTD/svg11.dtd">
<svg version="1.1" id="Layer_1" xmlns="http://www.w3.org/2000/svg" xmlns:xlink="http://www.w3.org/1999/xlink" x="0px" y="0px"
	 width="130px" height="110px" viewBox="0 0 130 110" enable-background="new 0 0 130 110" xml:space="preserve">
<g>
	<path d="M77.374,45.705V0H130v35.266c0,21.192-2.904,36.537-8.727,46.027c-7.635,12.65-19.723,22.221-36.267,28.707L73.01,93.395
		c10-3.643,17.361-9.058,22.086-16.252c4.73-7.199,7.363-17.677,7.909-31.437L77.374,45.705L77.374,45.705z M4.363,45.705V0h52.685
		v35.266c0,21.192-2.905,36.537-8.739,46.027C40.637,93.943,28.542,103.514,12,110L0,93.395
		c10.001-3.643,17.361-9.058,22.087-16.252c4.729-7.199,7.363-17.677,7.909-31.437L4.363,45.705L4.363,45.705z"/>
</g>
</svg>
