<?xml version="1.0" encoding="utf-8"?>
<!-- Generator: Adobe Illustrator 15.0.2, SVG Export Plug-In . SVG Version: 6.00 Build 0)  -->
<!DOCTYPE svg PUBLIC "-//W3C//DTD SVG 1.1//EN" "http://www.w3.org/Graphics/SVG/1.1/DTD/svg11.dtd">
<svg version="1.1" id="Layer_1" xmlns="http://www.w3.org/2000/svg" xmlns:xlink="http://www.w3.org/1999/xlink" x="0px" y="0px"
	 width="130px" height="110px" viewBox="0 0 130 110" enable-background="new 0 0 130 110" xml:space="preserve">
<g>
	<path fill="#FFFFFF" d="M52.626,64.295V110H0V74.734c0-21.192,2.905-36.537,8.726-46.027C16.361,16.056,28.448,6.487,44.992,0
		L56.99,16.607c-10,3.641-17.361,9.056-22.086,16.251c-4.73,7.199-7.363,17.676-7.909,31.436L52.626,64.295L52.626,64.295z
		 M125.637,64.295V110H72.952V74.734c0-21.192,2.905-36.537,8.739-46.027C89.363,16.056,101.458,6.487,118,0l12,16.607
		c-10.001,3.641-17.361,9.056-22.087,16.251c-4.729,7.199-7.363,17.676-7.909,31.436L125.637,64.295L125.637,64.295z"/>
</g>
</svg>
