<?xml version="1.0" encoding="utf-8"?>
<!-- Generator: Adobe Illustrator 15.0.2, SVG Export Plug-In . SVG Version: 6.00 Build 0)  -->
<!DOCTYPE svg PUBLIC "-//W3C//DTD SVG 1.1//EN" "http://www.w3.org/Graphics/SVG/1.1/DTD/svg11.dtd">
<svg version="1.1" id="Male" xmlns="http://www.w3.org/2000/svg" xmlns:xlink="http://www.w3.org/1999/xlink" x="0px" y="0px"
	 width="100px" height="100px" viewBox="-10 -10 100 100" enable-background="new -10 -10 100 100" xml:space="preserve">
<path d="M53.577-0.82c-10.186,0-19.061,5.507-23.701,13.616c-2.084-0.564-4.349-0.74-6.352-0.596
	c-11.077,0.804-17.62,11.087-13.173,21.841v0.739c-2.474,2.583-1.801,11.528,1.766,12.758c0.036,0.585,0.643,4.067,2.995,7.132
	c-0.001,0.008-0.002,0.013-0.003,0.019c-0.116,0.653-0.406,1.173-0.738,1.658c-0.006,0.01-0.013,0.02-0.02,0.03
	c-0.172,0.248-0.354,0.493-0.527,0.74c-0.163,0.23-0.32,0.463-0.453,0.717c-0.652,1.25-0.245,3.161-2.815,4.294
	c-1.882,0.821-8.619,4.06-12.089,5.733c0,0,0,0,0,0.001l0,0c1.043,1.552,2.181,3.035,3.388,4.457
	c0.091,0.107,0.173,0.221,0.265,0.327c0.007,0.01,0.016,0.018,0.025,0.027C11.313,83.283,24.868,90,39.994,90
	c0.001,0,0.001,0,0.002,0c0,0,0.001,0,0.003,0c7.015,0,13.688-1.449,19.744-4.055c-1.367-10.611-2.463-15.225-6.032-17.07
	c-3.789-1.953-11.626-5.625-14.194-6.745c-2.572-1.124-2.163-3.046-2.815-4.296c-0.075-0.144-0.162-0.277-0.249-0.412
	c-0.01-0.015-0.019-0.029-0.027-0.047c-0.371-0.564-0.816-1.08-1.13-1.696c0.886-0.948,1.541-2.087,1.813-3.442
	c0.279-1.401,0.686-3.447,0.764-5.035c3.647,2.516,7.961,4.195,12.672,4.698v9.337c0,0.842,0.527,1.591,1.324,1.881
	c0.224,0.078,0.448,0.119,0.682,0.119c0.582,0,1.148-0.256,1.537-0.717l10.651-12.785c9.717-4.279,15.973-13.688,15.973-24.109
	C80.714,11.044,68.54-0.82,53.577-0.82z"/>
<path fill="#FFFFFF" d="M53.578,3.179c-8.802,0-16.463,4.8-20.374,11.839c2.927,2.467,6.278,6.613,6.117,11.466
	c-0.083,2.521-0.969,7.735-0.969,7.735S41.4,35.391,41.479,40c0.024,1.436-0.249,3.012-0.664,4.357
	c3.401,2.176,7.435,3.513,11.811,3.688c1.073,0.041,1.922,0.922,1.922,1.999v5.667l7.422-8.906c0.207-0.247,0.468-0.442,0.763-0.564
	c8.492-3.557,13.98-11.648,13.982-20.615C76.715,13.249,66.335,3.179,53.578,3.179z"/>
<path fill="#FFFFFF" d="M35.955,39.709c1.798,0.235,1.374-2.508,2.46-2.236c1.811,0.451,0.97,6.479-0.449,6.934
	c-0.84,0.17-1.067-0.273-1.789-0.228c-1.196,1.725-0.672,3.95-1.117,5.816c-1.348,6.254-6.895,6.96-9.396,7.116
	c-6.094,0.234-11.51-4.736-11.434-12.81c-0.851-0.101-1.339,0.83-1.986,0.249c-1.417-1.238-2.06-6.672-0.447-7.306
	c1.613-0.633,0.777,2.652,2.683,2.461c-0.197-2.902-1.196-5.978,0-8.724c0.849-1.944,3.67-3.366,3.133-6.037
	c3.929,0.954,9.651,1.032,12.301-1.118C31.543,29.507,36.895,31.462,35.955,39.709z"/>
<g>
	<circle cx="46.354" cy="25.168" r="3.166"/>
	<circle cx="55.05" cy="25.168" r="3.166"/>
	<circle cx="63.742" cy="25.168" r="3.166"/>
</g>
</svg>
