<?xml version="1.0" encoding="utf-8"?>
<!-- Generator: Adobe Illustrator 15.0.2, SVG Export Plug-In . SVG Version: 6.00 Build 0)  -->
<!DOCTYPE svg PUBLIC "-//W3C//DTD SVG 1.1//EN" "http://www.w3.org/Graphics/SVG/1.1/DTD/svg11.dtd">
<svg version="1.1" id="female" xmlns="http://www.w3.org/2000/svg" xmlns:xlink="http://www.w3.org/1999/xlink" x="0px" y="0px"
	 width="100px" height="100px" viewBox="-10 -10 100 100" enable-background="new -10 -10 100 100" xml:space="preserve">
<path fill="#FFFFFF" d="M4.571,33c0,0,4.167,1.085,8.001-0.5s6.001-5.166,7.835-8.25c1.667,1,4.918,4.417,5.75,6.25
	c0.834,1.833,1.585,5.167,2.084,5.334c0.501,0.167,2.334-1.667,3.084-2.839c0.75-1.174,1.918,0.421,1.917,2.259
	c0,0.457-0.058,0.862-0.156,1.223c0.099-0.36,0.156-0.767,0.156-1.225c0-1.834-1.167-3.431-1.917-2.259
	c-0.75,1.172-2.583,3.004-3.083,2.837c-0.499-0.167-1.25-3.501-2.084-5.334c-0.833-1.833-4.084-5.25-5.751-6.25
	c-1.833,3.084-4.002,6.667-7.835,8.25c-3.833,1.584-8,0.5-8,0.5c-0.249-0.041-0.441,0.146-0.568,0.481
	C4.131,33.145,4.322,32.959,4.571,33z"/>
<path d="M53.46-0.82c-11.327,0-21.044,6.79-25.107,16.406c-2.75-2.296-6.125-3.835-10.2-3.835C3.657,11.75-2,31.25-2,35
	s0,11.626,0,14.584c0,2.957-1.262,4.832-3.054,6.332c3.043,3.203,5.834,1.744,7.71,1.744c1.875,0,1.209,0.707,0.208,1.381
	c-0.579,0.387-4.07,2.734-6.913,4.652C4.397,79.355,20.952,90,39.994,90c2.417,0,4.788-0.184,7.112-0.513
	c-0.153-17.152-1.902-20.345-3.674-23.236c-1.85-3.027-8.989-6.542-9.99-7.21c-1-0.664-1.667-1.381,0.208-1.381
	c1.875,0,4.667,1.457,7.71-1.744c-1.798-1.5-3.052-3.375-3.052-6.332c0-0.533,0-1.232,0-2.033c3.605,2.361,7.765,3.873,12.111,4.349
	v9.346c0,0.841,0.529,1.589,1.322,1.881c0.226,0.079,0.452,0.118,0.682,0.118c0.585,0,1.149-0.248,1.537-0.71l10.651-12.787
	c9.724-4.277,15.979-13.686,15.979-24.107C80.597,11.044,68.423-0.82,53.46-0.82z"/>
<path fill="#FFFFFF" d="M38.319,42.583c3.939,3.3,8.952,5.257,14.194,5.462c1.07,0.041,1.919,0.922,1.919,1.999v5.669l7.423-8.908
	c0.205-0.247,0.469-0.442,0.765-0.564c8.489-3.557,13.976-11.648,13.987-20.614c0-12.376-10.386-22.446-23.145-22.446
	c-10.286,0-19.029,6.552-22.027,15.578c4.819,5.986,6.884,13.979,6.884,16.243C38.319,36.874,38.319,39.778,38.319,42.583z
	 M62.873,22.001c1.748,0,3.167,1.417,3.167,3.166c0,1.75-1.419,3.167-3.167,3.167c-1.749,0-3.167-1.417-3.167-3.167
	C59.706,23.418,61.124,22.001,62.873,22.001z M54.178,22.001c1.749,0,3.167,1.417,3.167,3.166c0,1.75-1.418,3.167-3.167,3.167
	c-1.746,0-3.167-1.417-3.167-3.167C51.011,23.418,52.43,22.001,54.178,22.001z M45.482,22.001c1.75,0,3.167,1.417,3.167,3.166
	c0,1.75-1.417,3.167-3.167,3.167c-1.745,0-3.166-1.417-3.166-3.167C42.316,23.418,43.734,22.001,45.482,22.001z"/>
<path fill="#FFFFFF" d="M31.325,32.995c-0.75,1.172-2.583,3.006-3.084,2.839c-0.499-0.167-1.25-3.501-2.084-5.334
	c-0.833-1.833-4.084-5.25-5.75-6.25c-1.834,3.084-4.001,6.665-7.835,8.25S4.571,33,4.571,33c-1-0.166-1.084,3.331,0.334,5.415
	c1.417,2.085,2.583,2.083,3.5,5.249c0.917,3.168,3.252,6.174,4.418,7.503c1.167,1.332,2.667,2.839,5.334,2.839
	c2.667,0,6.334-2.916,8.001-5.59c1.667-2.666,2.835-6.076,3.25-7.58c0.416-1.5,1.25-1.749,2.084-2.25
	c0.833-0.5,1.749-1.501,1.749-3.333C33.243,33.416,32.076,31.821,31.325,32.995z"/>
<g>
	<circle cx="45.482" cy="25.168" r="3.166"/>
	<circle cx="54.178" cy="25.168" r="3.166"/>
	<circle cx="62.873" cy="25.168" r="3.166"/>
</g>
</svg>
