<?xml version="1.0" standalone="no"?>
<!DOCTYPE svg PUBLIC "-//W3C//DTD SVG 20010904//EN"
 "http://www.w3.org/TR/2001/REC-SVG-20010904/DTD/svg10.dtd">
<svg version="1.0" xmlns="http://www.w3.org/2000/svg"
 width="432.000000pt" height="432.000000pt" viewBox="0 0 432.000000 432.000000"
 preserveAspectRatio="xMidYMid meet">
<metadata>
Created by potrace 1.14, written by Peter Selinger 2001-2017
</metadata>
<g transform="translate(0.000000,432.000000) scale(0.100000,-0.100000)"
fill="#000000" stroke="none">
<path d="M1645 3512 c-375 -251 -347 -229 -330 -250 17 -20 57 -74 105 -139
19 -26 37 -50 40 -53 23 -21 98 -140 92 -144 -5 -3 -48 -56 -95 -118 -47 -62
-133 -176 -192 -253 -59 -77 -146 -192 -194 -255 -47 -63 -88 -117 -91 -120
-4 -3 -19 -23 -36 -45 -16 -22 -35 -46 -42 -53 -6 -8 -16 -21 -21 -30 -8 -16
28 -17 520 -17 463 0 530 2 533 15 3 8 12 47 21 85 9 39 20 86 25 105 5 19 16
69 25 110 9 41 23 102 30 135 8 33 19 83 26 110 6 28 13 60 14 72 2 11 6 30 9
41 4 11 9 31 12 44 7 35 24 108 35 153 25 104 30 91 -73 190 -51 49 -136 131
-189 182 l-96 93 80 160 c44 89 78 163 76 165 -2 2 -130 -81 -284 -183z"/>
<path d="M2222 3400 c-33 -65 -56 -120 -52 -122 22 -8 275 -243 272 -253 -10
-28 -96 -308 -112 -361 l-18 -61 159 1 159 0 0 253 c0 189 -3 255 -12 263 -21
17 -82 62 -164 120 -42 30 -96 69 -118 86 l-41 30 0 82 c0 45 -3 82 -7 82 -3
0 -33 -54 -66 -120z"/>
<path d="M2763 3013 c3 -10 9 -40 13 -68 4 -27 8 -53 10 -57 1 -5 2 -17 3 -27
0 -11 26 -38 61 -63 l59 -43 1 -92 0 -92 -100 -172 c-55 -94 -100 -173 -100
-175 0 -2 117 -4 260 -4 170 0 260 4 260 10 0 8 -89 360 -104 415 -2 6 -7 29
-11 52 -8 43 -9 44 -135 157 -77 69 -208 176 -214 176 -4 0 -5 -8 -3 -17z"/>
<path d="M335 1799 c-3 -4 -5 -152 -4 -329 l1 -321 91 3 91 3 0 123 c1 101 4
125 16 132 9 5 22 5 29 1 7 -5 42 -64 76 -132 l63 -124 113 -3 c90 -2 110 0
102 10 -6 7 -32 54 -58 103 -26 50 -65 122 -86 160 l-39 71 80 138 c44 76 82
146 85 156 5 15 -5 17 -93 18 l-97 1 -18 -31 c-9 -16 -38 -69 -63 -116 -50
-95 -66 -112 -93 -105 -16 4 -18 17 -18 106 -1 56 -1 112 -2 123 -1 20 -6 22
-86 22 -47 -1 -88 -4 -90 -9z"/>
<path d="M975 1801 c-2 -5 -4 -153 -4 -329 l0 -322 90 0 c102 0 92 -16 91 138
l-1 92 34 0 c36 0 41 -7 101 -157 l29 -73 201 0 202 0 5 28 c4 15 9 42 13 60
l6 32 102 0 102 0 13 -47 c7 -27 14 -54 17 -60 2 -9 32 -13 103 -13 l99 0
-110 329 -110 329 -96 0 c-109 0 -128 -3 -129 -21 -1 -12 -203 -619 -208 -625
-2 -2 -10 9 -18 25 -8 15 -38 72 -67 127 l-52 99 30 23 c40 31 62 91 62 165 0
103 -44 163 -140 190 -49 14 -357 22 -365 10z m303 -153 c7 -6 12 -33 12 -64
0 -63 -13 -74 -88 -74 l-48 0 -1 73 c-1 39 3 74 7 77 14 8 104 -1 118 -12z
m594 -79 c11 -46 22 -92 24 -102 2 -10 6 -27 9 -38 6 -17 1 -19 -60 -19 -36 0
-64 3 -62 8 2 4 17 60 32 125 15 65 30 116 32 113 2 -2 13 -42 25 -87z"/>
<path d="M2230 1479 l0 -329 90 0 90 0 0 128 c0 71 2 131 5 134 3 3 15 3 28 0
17 -3 37 -35 87 -133 l64 -129 109 0 108 0 -57 108 c-31 59 -72 133 -91 165
-18 32 -33 65 -33 73 0 8 11 32 25 54 14 22 25 42 25 46 0 3 8 18 18 32 10 15
37 61 60 103 l42 76 -101 0 c-92 1 -101 -1 -113 -21 -17 -26 -84 -150 -104
-193 -9 -17 -23 -33 -31 -36 -38 -9 -41 2 -41 127 l0 123 -90 0 -90 0 0 -328z"/>
<path d="M2860 1479 l0 -329 230 0 c126 0 230 3 230 8 1 4 3 40 6 80 l5 72
-143 0 -144 0 2 48 c1 26 2 50 3 55 0 4 51 7 111 7 l111 0 -3 68 -3 67 -108 0
c-64 0 -107 4 -108 10 -1 6 -2 26 -3 45 l-1 35 138 3 137 3 0 57 c0 108 21 99
-235 99 l-224 0 -1 -328z"/>
<path d="M3406 1803 c-3 -4 -6 -152 -6 -330 l0 -323 80 0 80 0 2 182 3 182
110 -153 c61 -85 119 -166 130 -182 18 -26 25 -29 83 -29 l62 0 0 330 0 329
-80 -1 -80 -1 0 -170 0 -170 -57 81 c-32 45 -86 121 -120 170 l-61 87 -70 2
c-38 1 -72 -1 -76 -4z"/>
</g>
</svg>
