<?xml version="1.0" encoding="utf-8"?>
<!-- Generator: Adobe Illustrator 15.0.2, SVG Export Plug-In . SVG Version: 6.00 Build 0)  -->
<!DOCTYPE svg PUBLIC "-//W3C//DTD SVG 1.1//EN" "http://www.w3.org/Graphics/SVG/1.1/DTD/svg11.dtd">
<svg version="1.1" id="Layer_1" xmlns="http://www.w3.org/2000/svg" xmlns:xlink="http://www.w3.org/1999/xlink" x="0px" y="0px"
	 width="130px" height="110px" viewBox="0 0 130 110" enable-background="new 0 0 130 110" xml:space="preserve">
<g>
	<path d="M50.242,0l12.142,15.051C41.586,32.353,30.91,46.313,30.354,56.939c16.048,3.688,24.074,12.566,24.074,26.632
		c0,7.65-2.679,13.967-8.03,18.95C41.046,107.51,34.756,110,27.528,110c-7.926,0-14.493-2.997-19.708-8.995
		C2.607,95.009,0,87.376,0,78.104C0,50.979,16.747,24.945,50.242,0z M117.648,0L130,15.051
		c-20.934,17.302-31.682,31.263-32.238,41.889c16.047,3.688,24.074,12.566,24.074,26.632c0,7.65-2.653,13.967-7.955,18.95
		c-5.306,4.988-11.586,7.479-18.84,7.479c-8.375,0-15.072-3.065-20.098-9.199c-5.023-6.136-7.536-13.699-7.536-22.697
		C67.407,51.936,84.154,25.899,117.648,0z"/>
</g>
</svg>
